<mxfile host="Electron" modified="2023-08-09T08:06:43.556Z" agent="Mozilla/5.0 (Windows NT 10.0; Win64; x64) AppleWebKit/537.36 (KHTML, like Gecko) draw.io/21.6.5 Chrome/114.0.5735.243 Electron/25.3.1 Safari/537.36" etag="KotPcnpSkI01JHCoJdey" version="21.6.5" type="device">
  <diagram name="第 1 页" id="77sZ5vG2opPDJuYnOLY6">
    <mxGraphModel dx="989" dy="577" grid="0" gridSize="10" guides="1" tooltips="1" connect="1" arrows="1" fold="1" page="1" pageScale="1" pageWidth="827" pageHeight="1169" math="0" shadow="0">
      <root>
        <mxCell id="0" />
        <mxCell id="1" parent="0" />
        <mxCell id="GQVIe0LcStLkYLpoiOQq-7" style="edgeStyle=orthogonalEdgeStyle;rounded=0;orthogonalLoop=1;jettySize=auto;html=1;exitX=0.5;exitY=1;exitDx=0;exitDy=0;exitPerimeter=0;entryX=0.5;entryY=0;entryDx=0;entryDy=0;entryPerimeter=0;" edge="1" parent="1" source="GQVIe0LcStLkYLpoiOQq-1" target="GQVIe0LcStLkYLpoiOQq-4">
          <mxGeometry relative="1" as="geometry" />
        </mxCell>
        <mxCell id="GQVIe0LcStLkYLpoiOQq-1" value="开始" style="strokeWidth=2;html=1;shape=mxgraph.flowchart.terminator;whiteSpace=wrap;fillColor=#d6dfe1;fontColor=#333333;strokeColor=#666666;" vertex="1" parent="1">
          <mxGeometry x="110" y="20" width="100" height="60" as="geometry" />
        </mxCell>
        <mxCell id="GQVIe0LcStLkYLpoiOQq-8" style="edgeStyle=orthogonalEdgeStyle;rounded=0;orthogonalLoop=1;jettySize=auto;html=1;exitX=0.5;exitY=1;exitDx=0;exitDy=0;exitPerimeter=0;" edge="1" parent="1" source="GQVIe0LcStLkYLpoiOQq-4" target="GQVIe0LcStLkYLpoiOQq-5">
          <mxGeometry relative="1" as="geometry" />
        </mxCell>
        <mxCell id="GQVIe0LcStLkYLpoiOQq-11" style="edgeStyle=orthogonalEdgeStyle;rounded=0;orthogonalLoop=1;jettySize=auto;html=1;exitX=1;exitY=0.5;exitDx=0;exitDy=0;exitPerimeter=0;" edge="1" parent="1" source="GQVIe0LcStLkYLpoiOQq-4" target="GQVIe0LcStLkYLpoiOQq-10">
          <mxGeometry relative="1" as="geometry" />
        </mxCell>
        <mxCell id="GQVIe0LcStLkYLpoiOQq-16" value="否" style="edgeLabel;html=1;align=center;verticalAlign=middle;resizable=0;points=[];" vertex="1" connectable="0" parent="GQVIe0LcStLkYLpoiOQq-11">
          <mxGeometry x="0.285" y="1" relative="1" as="geometry">
            <mxPoint as="offset" />
          </mxGeometry>
        </mxCell>
        <mxCell id="GQVIe0LcStLkYLpoiOQq-14" value="" style="edgeStyle=orthogonalEdgeStyle;rounded=0;orthogonalLoop=1;jettySize=auto;html=1;" edge="1" parent="1" source="GQVIe0LcStLkYLpoiOQq-4" target="GQVIe0LcStLkYLpoiOQq-5">
          <mxGeometry relative="1" as="geometry" />
        </mxCell>
        <mxCell id="GQVIe0LcStLkYLpoiOQq-15" value="是" style="edgeLabel;html=1;align=center;verticalAlign=middle;resizable=0;points=[];" vertex="1" connectable="0" parent="GQVIe0LcStLkYLpoiOQq-14">
          <mxGeometry x="-0.325" relative="1" as="geometry">
            <mxPoint x="-1" as="offset" />
          </mxGeometry>
        </mxCell>
        <mxCell id="GQVIe0LcStLkYLpoiOQq-4" value="&lt;b style=&quot;&quot;&gt;&lt;font style=&quot;font-size: 9px;&quot;&gt;能否打开dump文件？&lt;/font&gt;&lt;/b&gt;" style="strokeWidth=2;html=1;shape=mxgraph.flowchart.decision;whiteSpace=wrap;fillColor=#95da69;strokeColor=#82b366;" vertex="1" parent="1">
          <mxGeometry x="110" y="110" width="100" height="100" as="geometry" />
        </mxCell>
        <mxCell id="GQVIe0LcStLkYLpoiOQq-9" style="edgeStyle=orthogonalEdgeStyle;rounded=0;orthogonalLoop=1;jettySize=auto;html=1;exitX=0.5;exitY=1;exitDx=0;exitDy=0;exitPerimeter=0;entryX=0.5;entryY=0;entryDx=0;entryDy=0;entryPerimeter=0;" edge="1" parent="1" source="GQVIe0LcStLkYLpoiOQq-5" target="GQVIe0LcStLkYLpoiOQq-6">
          <mxGeometry relative="1" as="geometry" />
        </mxCell>
        <mxCell id="GQVIe0LcStLkYLpoiOQq-18" value="是" style="edgeLabel;html=1;align=center;verticalAlign=middle;resizable=0;points=[];" vertex="1" connectable="0" parent="GQVIe0LcStLkYLpoiOQq-9">
          <mxGeometry x="-0.0933" y="-1" relative="1" as="geometry">
            <mxPoint x="1" as="offset" />
          </mxGeometry>
        </mxCell>
        <mxCell id="GQVIe0LcStLkYLpoiOQq-12" style="edgeStyle=orthogonalEdgeStyle;rounded=0;orthogonalLoop=1;jettySize=auto;html=1;exitX=1;exitY=0.5;exitDx=0;exitDy=0;exitPerimeter=0;entryX=0;entryY=0.5;entryDx=0;entryDy=0;" edge="1" parent="1" source="GQVIe0LcStLkYLpoiOQq-5" target="GQVIe0LcStLkYLpoiOQq-10">
          <mxGeometry relative="1" as="geometry" />
        </mxCell>
        <mxCell id="GQVIe0LcStLkYLpoiOQq-17" value="否" style="edgeLabel;html=1;align=center;verticalAlign=middle;resizable=0;points=[];" vertex="1" connectable="0" parent="GQVIe0LcStLkYLpoiOQq-12">
          <mxGeometry x="-0.0889" y="-1" relative="1" as="geometry">
            <mxPoint as="offset" />
          </mxGeometry>
        </mxCell>
        <mxCell id="GQVIe0LcStLkYLpoiOQq-5" value="&lt;b style=&quot;&quot;&gt;&lt;font style=&quot;font-size: 9px;&quot;&gt;fwrite写super block到dump文件是否成功？&lt;/font&gt;&lt;/b&gt;" style="strokeWidth=2;html=1;shape=mxgraph.flowchart.decision;whiteSpace=wrap;fillColor=#95DA69;strokeColor=#82b366;" vertex="1" parent="1">
          <mxGeometry x="110" y="250" width="100" height="100" as="geometry" />
        </mxCell>
        <mxCell id="GQVIe0LcStLkYLpoiOQq-6" value="结束" style="strokeWidth=2;html=1;shape=mxgraph.flowchart.terminator;whiteSpace=wrap;fillColor=#d6dfe1;fontColor=#333333;strokeColor=#666666;" vertex="1" parent="1">
          <mxGeometry x="110" y="400" width="100" height="60" as="geometry" />
        </mxCell>
        <mxCell id="GQVIe0LcStLkYLpoiOQq-13" style="edgeStyle=orthogonalEdgeStyle;rounded=0;orthogonalLoop=1;jettySize=auto;html=1;exitX=0.5;exitY=1;exitDx=0;exitDy=0;entryX=1;entryY=0.5;entryDx=0;entryDy=0;entryPerimeter=0;" edge="1" parent="1" source="GQVIe0LcStLkYLpoiOQq-10" target="GQVIe0LcStLkYLpoiOQq-6">
          <mxGeometry relative="1" as="geometry" />
        </mxCell>
        <mxCell id="GQVIe0LcStLkYLpoiOQq-10" value="错误汇总" style="rounded=0;whiteSpace=wrap;html=1;fillColor=#ffffed;" vertex="1" parent="1">
          <mxGeometry x="240" y="270" width="120" height="60" as="geometry" />
        </mxCell>
        <mxCell id="GQVIe0LcStLkYLpoiOQq-19" style="edgeStyle=orthogonalEdgeStyle;rounded=0;orthogonalLoop=1;jettySize=auto;html=1;exitX=0.5;exitY=1;exitDx=0;exitDy=0;exitPerimeter=0;entryX=0.5;entryY=0;entryDx=0;entryDy=0;entryPerimeter=0;" edge="1" parent="1" source="GQVIe0LcStLkYLpoiOQq-20" target="GQVIe0LcStLkYLpoiOQq-26">
          <mxGeometry relative="1" as="geometry" />
        </mxCell>
        <mxCell id="GQVIe0LcStLkYLpoiOQq-20" value="开始" style="strokeWidth=2;html=1;shape=mxgraph.flowchart.terminator;whiteSpace=wrap;fillColor=#d6dfe1;fontColor=#333333;strokeColor=#666666;" vertex="1" parent="1">
          <mxGeometry x="128" y="554" width="100" height="60" as="geometry" />
        </mxCell>
        <mxCell id="GQVIe0LcStLkYLpoiOQq-44" style="edgeStyle=orthogonalEdgeStyle;rounded=0;orthogonalLoop=1;jettySize=auto;html=1;exitX=0.5;exitY=1;exitDx=0;exitDy=0;exitPerimeter=0;entryX=0.5;entryY=0;entryDx=0;entryDy=0;" edge="1" parent="1" source="GQVIe0LcStLkYLpoiOQq-26" target="GQVIe0LcStLkYLpoiOQq-43">
          <mxGeometry relative="1" as="geometry" />
        </mxCell>
        <mxCell id="GQVIe0LcStLkYLpoiOQq-54" value="否" style="edgeLabel;html=1;align=center;verticalAlign=middle;resizable=0;points=[];" vertex="1" connectable="0" parent="GQVIe0LcStLkYLpoiOQq-44">
          <mxGeometry x="-0.3397" y="3" relative="1" as="geometry">
            <mxPoint as="offset" />
          </mxGeometry>
        </mxCell>
        <mxCell id="GQVIe0LcStLkYLpoiOQq-46" style="edgeStyle=orthogonalEdgeStyle;rounded=0;orthogonalLoop=1;jettySize=auto;html=1;exitX=1;exitY=0.5;exitDx=0;exitDy=0;exitPerimeter=0;entryX=0.004;entryY=0.601;entryDx=0;entryDy=0;entryPerimeter=0;" edge="1" parent="1" source="GQVIe0LcStLkYLpoiOQq-26" target="GQVIe0LcStLkYLpoiOQq-38">
          <mxGeometry relative="1" as="geometry" />
        </mxCell>
        <mxCell id="GQVIe0LcStLkYLpoiOQq-55" value="是" style="edgeLabel;html=1;align=center;verticalAlign=middle;resizable=0;points=[];" vertex="1" connectable="0" parent="GQVIe0LcStLkYLpoiOQq-46">
          <mxGeometry x="-0.1636" y="-2" relative="1" as="geometry">
            <mxPoint as="offset" />
          </mxGeometry>
        </mxCell>
        <mxCell id="GQVIe0LcStLkYLpoiOQq-26" value="&lt;font style=&quot;font-size: 10px;&quot;&gt;&lt;b style=&quot;&quot;&gt;打开fsck_info模板文件和dump文件&lt;/b&gt;&lt;/font&gt;" style="strokeWidth=2;html=1;shape=mxgraph.flowchart.decision;whiteSpace=wrap;fillColor=#95da69;strokeColor=#82b366;" vertex="1" parent="1">
          <mxGeometry x="128" y="644" width="100" height="100" as="geometry" />
        </mxCell>
        <mxCell id="GQVIe0LcStLkYLpoiOQq-32" value="结束" style="strokeWidth=2;html=1;shape=mxgraph.flowchart.terminator;whiteSpace=wrap;fillColor=#d6dfe1;fontColor=#333333;strokeColor=#666666;" vertex="1" parent="1">
          <mxGeometry x="127" y="885" width="100" height="60" as="geometry" />
        </mxCell>
        <mxCell id="GQVIe0LcStLkYLpoiOQq-48" style="edgeStyle=orthogonalEdgeStyle;rounded=0;orthogonalLoop=1;jettySize=auto;html=1;exitX=0.5;exitY=1;exitDx=0;exitDy=0;entryX=0.5;entryY=0;entryDx=0;entryDy=0;entryPerimeter=0;" edge="1" parent="1" source="GQVIe0LcStLkYLpoiOQq-36" target="GQVIe0LcStLkYLpoiOQq-41">
          <mxGeometry relative="1" as="geometry" />
        </mxCell>
        <mxCell id="GQVIe0LcStLkYLpoiOQq-36" value="遍历模板文件的每一行，直至达到文件尾" style="rounded=0;whiteSpace=wrap;html=1;fillColor=#ffffed;" vertex="1" parent="1">
          <mxGeometry x="294" y="765" width="120" height="60" as="geometry" />
        </mxCell>
        <mxCell id="GQVIe0LcStLkYLpoiOQq-47" style="edgeStyle=orthogonalEdgeStyle;rounded=0;orthogonalLoop=1;jettySize=auto;html=1;exitX=0.5;exitY=1;exitDx=0;exitDy=0;" edge="1" parent="1" source="GQVIe0LcStLkYLpoiOQq-38" target="GQVIe0LcStLkYLpoiOQq-36">
          <mxGeometry relative="1" as="geometry" />
        </mxCell>
        <mxCell id="GQVIe0LcStLkYLpoiOQq-38" value="将data数据转成bytes字符串，如&quot;Aa&quot;，转换成&quot; 65, 97,&quot;" style="rounded=0;whiteSpace=wrap;html=1;fillColor=#ffffed;" vertex="1" parent="1">
          <mxGeometry x="294" y="658" width="120" height="60" as="geometry" />
        </mxCell>
        <mxCell id="GQVIe0LcStLkYLpoiOQq-50" style="edgeStyle=orthogonalEdgeStyle;rounded=0;orthogonalLoop=1;jettySize=auto;html=1;exitX=1;exitY=0.5;exitDx=0;exitDy=0;entryX=0.5;entryY=1;entryDx=0;entryDy=0;entryPerimeter=0;" edge="1" parent="1" source="GQVIe0LcStLkYLpoiOQq-40" target="GQVIe0LcStLkYLpoiOQq-42">
          <mxGeometry relative="1" as="geometry" />
        </mxCell>
        <mxCell id="GQVIe0LcStLkYLpoiOQq-40" value="将匹配的字符串替换成实际数据" style="rounded=0;whiteSpace=wrap;html=1;fillColor=#ffffed;" vertex="1" parent="1">
          <mxGeometry x="264" y="993" width="120" height="60" as="geometry" />
        </mxCell>
        <mxCell id="GQVIe0LcStLkYLpoiOQq-49" style="edgeStyle=orthogonalEdgeStyle;rounded=0;orthogonalLoop=1;jettySize=auto;html=1;exitX=0.5;exitY=1;exitDx=0;exitDy=0;exitPerimeter=0;entryX=0.25;entryY=0;entryDx=0;entryDy=0;" edge="1" parent="1" source="GQVIe0LcStLkYLpoiOQq-41" target="GQVIe0LcStLkYLpoiOQq-40">
          <mxGeometry relative="1" as="geometry" />
        </mxCell>
        <mxCell id="GQVIe0LcStLkYLpoiOQq-57" value="是" style="edgeLabel;html=1;align=center;verticalAlign=middle;resizable=0;points=[];" vertex="1" connectable="0" parent="GQVIe0LcStLkYLpoiOQq-49">
          <mxGeometry x="-0.1192" y="2" relative="1" as="geometry">
            <mxPoint as="offset" />
          </mxGeometry>
        </mxCell>
        <mxCell id="GQVIe0LcStLkYLpoiOQq-51" style="edgeStyle=orthogonalEdgeStyle;rounded=0;orthogonalLoop=1;jettySize=auto;html=1;exitX=1;exitY=0.5;exitDx=0;exitDy=0;exitPerimeter=0;entryX=0;entryY=0.5;entryDx=0;entryDy=0;entryPerimeter=0;" edge="1" parent="1" source="GQVIe0LcStLkYLpoiOQq-41" target="GQVIe0LcStLkYLpoiOQq-42">
          <mxGeometry relative="1" as="geometry" />
        </mxCell>
        <mxCell id="GQVIe0LcStLkYLpoiOQq-58" value="否" style="edgeLabel;html=1;align=center;verticalAlign=middle;resizable=0;points=[];" vertex="1" connectable="0" parent="GQVIe0LcStLkYLpoiOQq-51">
          <mxGeometry x="-0.2993" relative="1" as="geometry">
            <mxPoint as="offset" />
          </mxGeometry>
        </mxCell>
        <mxCell id="GQVIe0LcStLkYLpoiOQq-41" value="&lt;font style=&quot;font-size: 10px;&quot;&gt;&lt;b style=&quot;&quot;&gt;是否匹配{{__data__}}?&lt;/b&gt;&lt;/font&gt;" style="strokeWidth=2;html=1;shape=mxgraph.flowchart.decision;whiteSpace=wrap;fillColor=#95da69;strokeColor=#82b366;" vertex="1" parent="1">
          <mxGeometry x="245" y="865" width="100" height="100" as="geometry" />
        </mxCell>
        <mxCell id="GQVIe0LcStLkYLpoiOQq-52" style="edgeStyle=orthogonalEdgeStyle;rounded=0;orthogonalLoop=1;jettySize=auto;html=1;exitX=1;exitY=0.5;exitDx=0;exitDy=0;exitPerimeter=0;entryX=1;entryY=0.5;entryDx=0;entryDy=0;" edge="1" parent="1" source="GQVIe0LcStLkYLpoiOQq-42" target="GQVIe0LcStLkYLpoiOQq-36">
          <mxGeometry relative="1" as="geometry" />
        </mxCell>
        <mxCell id="GQVIe0LcStLkYLpoiOQq-60" value="否" style="edgeLabel;html=1;align=center;verticalAlign=middle;resizable=0;points=[];" vertex="1" connectable="0" parent="GQVIe0LcStLkYLpoiOQq-52">
          <mxGeometry x="-0.2185" y="-3" relative="1" as="geometry">
            <mxPoint as="offset" />
          </mxGeometry>
        </mxCell>
        <mxCell id="GQVIe0LcStLkYLpoiOQq-53" style="edgeStyle=orthogonalEdgeStyle;rounded=0;orthogonalLoop=1;jettySize=auto;html=1;exitX=1;exitY=0.5;exitDx=0;exitDy=0;exitPerimeter=0;entryX=0.5;entryY=1;entryDx=0;entryDy=0;entryPerimeter=0;" edge="1" parent="1" source="GQVIe0LcStLkYLpoiOQq-42" target="GQVIe0LcStLkYLpoiOQq-32">
          <mxGeometry relative="1" as="geometry">
            <Array as="points">
              <mxPoint x="490" y="915" />
              <mxPoint x="490" y="1072" />
              <mxPoint x="177" y="1072" />
            </Array>
          </mxGeometry>
        </mxCell>
        <mxCell id="GQVIe0LcStLkYLpoiOQq-59" value="是" style="edgeLabel;html=1;align=center;verticalAlign=middle;resizable=0;points=[];" vertex="1" connectable="0" parent="GQVIe0LcStLkYLpoiOQq-53">
          <mxGeometry x="-0.6745" relative="1" as="geometry">
            <mxPoint as="offset" />
          </mxGeometry>
        </mxCell>
        <mxCell id="GQVIe0LcStLkYLpoiOQq-42" value="&lt;font style=&quot;font-size: 10px;&quot;&gt;&lt;b style=&quot;&quot;&gt;是否结束？&lt;/b&gt;&lt;/font&gt;" style="strokeWidth=2;html=1;shape=mxgraph.flowchart.decision;whiteSpace=wrap;fillColor=#95da69;strokeColor=#82b366;" vertex="1" parent="1">
          <mxGeometry x="370" y="865" width="100" height="100" as="geometry" />
        </mxCell>
        <mxCell id="GQVIe0LcStLkYLpoiOQq-45" style="edgeStyle=orthogonalEdgeStyle;rounded=0;orthogonalLoop=1;jettySize=auto;html=1;exitX=0.5;exitY=1;exitDx=0;exitDy=0;" edge="1" parent="1" source="GQVIe0LcStLkYLpoiOQq-43" target="GQVIe0LcStLkYLpoiOQq-32">
          <mxGeometry relative="1" as="geometry" />
        </mxCell>
        <mxCell id="GQVIe0LcStLkYLpoiOQq-43" value="错误汇总" style="rounded=0;whiteSpace=wrap;html=1;fillColor=#ffffed;" vertex="1" parent="1">
          <mxGeometry x="118" y="790" width="120" height="60" as="geometry" />
        </mxCell>
        <mxCell id="GQVIe0LcStLkYLpoiOQq-85" style="edgeStyle=orthogonalEdgeStyle;rounded=0;orthogonalLoop=1;jettySize=auto;html=1;exitX=0.5;exitY=1;exitDx=0;exitDy=0;exitPerimeter=0;entryX=0.5;entryY=0;entryDx=0;entryDy=0;entryPerimeter=0;" edge="1" parent="1" source="GQVIe0LcStLkYLpoiOQq-62" target="GQVIe0LcStLkYLpoiOQq-77">
          <mxGeometry relative="1" as="geometry" />
        </mxCell>
        <mxCell id="GQVIe0LcStLkYLpoiOQq-62" value="开始" style="strokeWidth=2;html=1;shape=mxgraph.flowchart.terminator;whiteSpace=wrap;fillColor=#d6dfe1;fontColor=#333333;strokeColor=#666666;" vertex="1" parent="1">
          <mxGeometry x="139" y="1219" width="100" height="60" as="geometry" />
        </mxCell>
        <mxCell id="GQVIe0LcStLkYLpoiOQq-86" style="edgeStyle=orthogonalEdgeStyle;rounded=0;orthogonalLoop=1;jettySize=auto;html=1;exitX=0.5;exitY=1;exitDx=0;exitDy=0;exitPerimeter=0;entryX=0.5;entryY=0;entryDx=0;entryDy=0;entryPerimeter=0;" edge="1" parent="1" source="GQVIe0LcStLkYLpoiOQq-77" target="GQVIe0LcStLkYLpoiOQq-80">
          <mxGeometry relative="1" as="geometry" />
        </mxCell>
        <mxCell id="GQVIe0LcStLkYLpoiOQq-96" value="是" style="edgeLabel;html=1;align=center;verticalAlign=middle;resizable=0;points=[];" vertex="1" connectable="0" parent="GQVIe0LcStLkYLpoiOQq-86">
          <mxGeometry x="-0.4261" y="-1" relative="1" as="geometry">
            <mxPoint as="offset" />
          </mxGeometry>
        </mxCell>
        <mxCell id="GQVIe0LcStLkYLpoiOQq-91" style="edgeStyle=orthogonalEdgeStyle;rounded=0;orthogonalLoop=1;jettySize=auto;html=1;exitX=1;exitY=0.5;exitDx=0;exitDy=0;exitPerimeter=0;entryX=0.5;entryY=0;entryDx=0;entryDy=0;" edge="1" parent="1" source="GQVIe0LcStLkYLpoiOQq-77" target="GQVIe0LcStLkYLpoiOQq-82">
          <mxGeometry relative="1" as="geometry" />
        </mxCell>
        <mxCell id="GQVIe0LcStLkYLpoiOQq-95" value="否" style="edgeLabel;html=1;align=center;verticalAlign=middle;resizable=0;points=[];" vertex="1" connectable="0" parent="GQVIe0LcStLkYLpoiOQq-91">
          <mxGeometry x="-0.0257" y="-1" relative="1" as="geometry">
            <mxPoint as="offset" />
          </mxGeometry>
        </mxCell>
        <mxCell id="GQVIe0LcStLkYLpoiOQq-77" value="&lt;font style=&quot;font-size: 10px;&quot;&gt;&lt;b style=&quot;&quot;&gt;构造一个虚拟的buffer_header，数据指针指向参数data&lt;/b&gt;&lt;/font&gt;" style="strokeWidth=2;html=1;shape=mxgraph.flowchart.decision;whiteSpace=wrap;fillColor=#95da69;strokeColor=#82b366;" vertex="1" parent="1">
          <mxGeometry x="138" y="1307" width="100" height="100" as="geometry" />
        </mxCell>
        <mxCell id="GQVIe0LcStLkYLpoiOQq-89" style="edgeStyle=orthogonalEdgeStyle;rounded=0;orthogonalLoop=1;jettySize=auto;html=1;exitX=0;exitY=0.5;exitDx=0;exitDy=0;exitPerimeter=0;" edge="1" parent="1" source="GQVIe0LcStLkYLpoiOQq-80" target="GQVIe0LcStLkYLpoiOQq-83">
          <mxGeometry relative="1" as="geometry" />
        </mxCell>
        <mxCell id="GQVIe0LcStLkYLpoiOQq-97" value="是" style="edgeLabel;html=1;align=center;verticalAlign=middle;resizable=0;points=[];" vertex="1" connectable="0" parent="GQVIe0LcStLkYLpoiOQq-89">
          <mxGeometry x="0.2046" y="-1" relative="1" as="geometry">
            <mxPoint as="offset" />
          </mxGeometry>
        </mxCell>
        <mxCell id="GQVIe0LcStLkYLpoiOQq-90" style="edgeStyle=orthogonalEdgeStyle;rounded=0;orthogonalLoop=1;jettySize=auto;html=1;exitX=1;exitY=0.5;exitDx=0;exitDy=0;exitPerimeter=0;" edge="1" parent="1" source="GQVIe0LcStLkYLpoiOQq-80" target="GQVIe0LcStLkYLpoiOQq-87">
          <mxGeometry relative="1" as="geometry" />
        </mxCell>
        <mxCell id="GQVIe0LcStLkYLpoiOQq-98" value="否" style="edgeLabel;html=1;align=center;verticalAlign=middle;resizable=0;points=[];" vertex="1" connectable="0" parent="GQVIe0LcStLkYLpoiOQq-90">
          <mxGeometry x="0.0635" y="-2" relative="1" as="geometry">
            <mxPoint as="offset" />
          </mxGeometry>
        </mxCell>
        <mxCell id="GQVIe0LcStLkYLpoiOQq-80" value="&lt;font style=&quot;font-size: 10px;&quot;&gt;&lt;b style=&quot;&quot;&gt;buffer_header是否一致？&lt;/b&gt;&lt;/font&gt;" style="strokeWidth=2;html=1;shape=mxgraph.flowchart.decision;whiteSpace=wrap;fillColor=#95da69;strokeColor=#82b366;" vertex="1" parent="1">
          <mxGeometry x="139" y="1434" width="100" height="100" as="geometry" />
        </mxCell>
        <mxCell id="GQVIe0LcStLkYLpoiOQq-92" style="edgeStyle=orthogonalEdgeStyle;rounded=0;orthogonalLoop=1;jettySize=auto;html=1;exitX=0.5;exitY=1;exitDx=0;exitDy=0;" edge="1" parent="1" source="GQVIe0LcStLkYLpoiOQq-82" target="GQVIe0LcStLkYLpoiOQq-84">
          <mxGeometry relative="1" as="geometry">
            <Array as="points">
              <mxPoint x="340" y="1696" />
            </Array>
          </mxGeometry>
        </mxCell>
        <mxCell id="GQVIe0LcStLkYLpoiOQq-82" value="错误汇总" style="rounded=0;whiteSpace=wrap;html=1;fillColor=#ffffed;" vertex="1" parent="1">
          <mxGeometry x="280" y="1385" width="120" height="60" as="geometry" />
        </mxCell>
        <mxCell id="GQVIe0LcStLkYLpoiOQq-94" style="edgeStyle=orthogonalEdgeStyle;rounded=0;orthogonalLoop=1;jettySize=auto;html=1;exitX=0.5;exitY=1;exitDx=0;exitDy=0;" edge="1" parent="1" source="GQVIe0LcStLkYLpoiOQq-83" target="GQVIe0LcStLkYLpoiOQq-84">
          <mxGeometry relative="1" as="geometry" />
        </mxCell>
        <mxCell id="GQVIe0LcStLkYLpoiOQq-83" value="将super block拷贝到参数raw_super，并设置其它参数" style="rounded=0;whiteSpace=wrap;html=1;fillColor=#ffffed;" vertex="1" parent="1">
          <mxGeometry x="55" y="1560" width="120" height="60" as="geometry" />
        </mxCell>
        <mxCell id="GQVIe0LcStLkYLpoiOQq-84" value="结束" style="strokeWidth=2;html=1;shape=mxgraph.flowchart.terminator;whiteSpace=wrap;fillColor=#d6dfe1;fontColor=#333333;strokeColor=#666666;" vertex="1" parent="1">
          <mxGeometry x="138" y="1666" width="100" height="60" as="geometry" />
        </mxCell>
        <mxCell id="GQVIe0LcStLkYLpoiOQq-93" style="edgeStyle=orthogonalEdgeStyle;rounded=0;orthogonalLoop=1;jettySize=auto;html=1;exitX=0.5;exitY=1;exitDx=0;exitDy=0;" edge="1" parent="1" source="GQVIe0LcStLkYLpoiOQq-87" target="GQVIe0LcStLkYLpoiOQq-84">
          <mxGeometry relative="1" as="geometry" />
        </mxCell>
        <mxCell id="GQVIe0LcStLkYLpoiOQq-87" value="调用原始的read_raw_super_block" style="rounded=0;whiteSpace=wrap;html=1;fillColor=#ffffed;" vertex="1" parent="1">
          <mxGeometry x="210" y="1560" width="120" height="60" as="geometry" />
        </mxCell>
      </root>
    </mxGraphModel>
  </diagram>
</mxfile>
